<svg xmlns="http://www.w3.org/2000/svg" viewBox="0 0 65.72 31.81">
    <defs>
        <style>
            .dark-blue {
                fill: #2c5282;
            }
        </style>
    </defs>
    <title>admirals</title>
    <polygon class="dark-blue" points="61.32 15.42 61.32 9.49 56.98 5.15 56.98 0 52.4 0 52.4 6.44 56.74 10.78 56.74 16.7 61.14 21.1 61.14 31.81 65.72 31.81 65.72 19.82 61.32 15.42"/>
    <polygon class="dark-blue" points="50.4 7.27 50.4 0 45.98 0 45.98 8.26 50.31 12.6 50.31 18.53 54.71 22.93 54.71 31.81 59.14 31.81 59.14 21.93 54.74 17.53 54.74 11.6 50.4 7.27"/>
    <polygon class="dark-blue" points="52.71 31.81 52.71 23.75 48.31 19.35 48.31 13.43 43.98 9.09 43.98 0 0 0 0 4.46 0 19.82 14.79 19.82 14.79 31.81 52.71 31.81"/>
</svg>